<svg width="22" height="23" viewBox="0 0 22 23" fill="none" xmlns="http://www.w3.org/2000/svg">
<path fill-rule="evenodd" clip-rule="evenodd" d="M2.2079 11.375C2.20806 9.69454 2.69309 8.04986 3.60479 6.63827C4.51649 5.22667 5.81614 4.10813 7.34778 3.41685C8.87943 2.72557 10.578 2.49092 12.2397 2.74106C13.9014 2.9912 15.4556 3.71549 16.7159 4.82704C17.9761 5.93859 18.8889 7.39018 19.3446 9.00762C19.8004 10.6251 19.7797 12.3396 19.2852 13.9456C18.7906 15.5516 17.8432 16.9808 16.5565 18.0617C15.2699 19.1426 13.6986 19.8292 12.0314 20.0393V13.558H14.2144C14.5039 13.558 14.7815 13.443 14.9862 13.2383C15.1909 13.0336 15.3059 12.7559 15.3059 12.4665C15.3059 12.177 15.1909 11.8993 14.9862 11.6947C14.7815 11.49 14.5039 11.375 14.2144 11.375H12.0314V9.19196C12.0314 8.90248 12.1464 8.62485 12.3511 8.42015C12.5558 8.21546 12.8334 8.10046 13.1229 8.10046H13.6687C13.9581 8.10046 14.2358 7.98546 14.4405 7.78077C14.6452 7.57607 14.7602 7.29844 14.7602 7.00896C14.7602 6.71948 14.6452 6.44185 14.4405 6.23715C14.2358 6.03246 13.9581 5.91746 13.6687 5.91746H13.1229C12.2545 5.91746 11.4216 6.26245 10.8075 6.87654C10.1934 7.49063 9.8484 8.32351 9.8484 9.19196V11.375H7.6654C7.37592 11.375 7.09829 11.49 6.8936 11.6947C6.6889 11.8993 6.5739 12.177 6.5739 12.4665C6.5739 12.7559 6.6889 13.0336 6.8936 13.2383C7.09829 13.443 7.37592 13.558 7.6654 13.558H9.8484V20.0393C7.73821 19.7732 5.79765 18.7461 4.39091 17.1509C2.98416 15.5557 2.20794 13.5019 2.2079 11.375ZM10.9399 22.29C16.9683 22.29 21.8549 17.4033 21.8549 11.375C21.8549 5.34661 16.9683 0.459961 10.9399 0.459961C4.91155 0.459961 0.0249023 5.34661 0.0249023 11.375C0.0249023 17.4033 4.91155 22.29 10.9399 22.29Z" fill="black"/>
</svg>
