<svg width="27" height="27" viewBox="0 0 27 27" fill="none" xmlns="http://www.w3.org/2000/svg">
<path d="M13.5 0.75C6.25195 0.75 0.375 6.62695 0.375 13.875C0.375 21.123 6.25195 27 13.5 27C20.748 27 26.625 21.123 26.625 13.875C26.625 6.62695 20.748 0.75 13.5 0.75ZM13.5 24.7734C7.48242 24.7734 2.60156 19.8926 2.60156 13.875C2.60156 7.85742 7.48242 2.97656 13.5 2.97656C19.5176 2.97656 24.3984 7.85742 24.3984 13.875C24.3984 19.8926 19.5176 24.7734 13.5 24.7734ZM13.6641 9.16699C15.2168 9.16699 16.2715 10.1572 16.3887 11.6104C16.3975 11.7334 16.5 11.8271 16.623 11.8271H18.2842C18.3604 11.8271 18.4219 11.7656 18.4219 11.6895C18.4219 9.14941 16.418 7.37109 13.6553 7.37109C10.4355 7.37109 8.57812 9.54492 8.57812 13.1367V14.6689C8.57812 18.2344 10.4355 20.3789 13.6553 20.3789C16.4092 20.3789 18.4219 18.6562 18.4219 16.2363C18.4219 16.1602 18.3604 16.0986 18.2842 16.0986H16.6201C16.4971 16.0986 16.3975 16.1924 16.3857 16.3125C16.2627 17.6631 15.2109 18.5918 13.6611 18.5918C11.748 18.5918 10.6699 17.1885 10.6699 14.6777V13.1367C10.6729 10.5879 11.7539 9.16699 13.6641 9.16699Z" fill="black"/>
</svg>
