<svg width="24" height="24" viewBox="0 0 24 24" fill="none" xmlns="http://www.w3.org/2000/svg">
<path d="M7.52498 0.875H17.185C20.865 0.875 23.855 3.865 23.855 7.545V17.205C23.855 18.974 23.1523 20.6705 21.9014 21.9214C20.6505 23.1723 18.954 23.875 17.185 23.875H7.52498C3.84498 23.875 0.85498 20.885 0.85498 17.205V7.545C0.85498 5.77601 1.55771 4.07947 2.80858 2.8286C4.05945 1.57773 5.75599 0.875 7.52498 0.875ZM7.29498 3.175C6.19698 3.175 5.14396 3.61118 4.36756 4.38758C3.59116 5.16398 3.15498 6.217 3.15498 7.315V17.435C3.15498 19.7235 5.00648 21.575 7.29498 21.575H17.415C18.513 21.575 19.566 21.1388 20.3424 20.3624C21.1188 19.586 21.555 18.533 21.555 17.435V7.315C21.555 5.0265 19.7035 3.175 17.415 3.175H7.29498ZM18.3925 4.9C18.7737 4.9 19.1394 5.05145 19.4089 5.32103C19.6785 5.59062 19.83 5.95625 19.83 6.3375C19.83 6.71875 19.6785 7.08438 19.4089 7.35397C19.1394 7.62355 18.7737 7.775 18.3925 7.775C18.0112 7.775 17.6456 7.62355 17.376 7.35397C17.1064 7.08438 16.955 6.71875 16.955 6.3375C16.955 5.95625 17.1064 5.59062 17.376 5.32103C17.6456 5.05145 18.0112 4.9 18.3925 4.9ZM12.355 6.625C13.88 6.625 15.3425 7.2308 16.4208 8.30914C17.4992 9.38747 18.105 10.85 18.105 12.375C18.105 13.9 17.4992 15.3625 16.4208 16.4409C15.3425 17.5192 13.88 18.125 12.355 18.125C10.83 18.125 9.36745 17.5192 8.28912 16.4409C7.21078 15.3625 6.60498 13.9 6.60498 12.375C6.60498 10.85 7.21078 9.38747 8.28912 8.30914C9.36745 7.2308 10.83 6.625 12.355 6.625ZM12.355 8.925C11.44 8.925 10.5625 9.28848 9.91546 9.93548C9.26846 10.5825 8.90498 11.46 8.90498 12.375C8.90498 13.29 9.26846 14.1675 9.91546 14.8145C10.5625 15.4615 11.44 15.825 12.355 15.825C13.27 15.825 14.1475 15.4615 14.7945 14.8145C15.4415 14.1675 15.805 13.29 15.805 12.375C15.805 11.46 15.4415 10.5825 14.7945 9.93548C14.1475 9.28848 13.27 8.925 12.355 8.925Z" fill="black"/>
</svg>
