<svg width="22" height="22" viewBox="0 0 22 22" fill="none" xmlns="http://www.w3.org/2000/svg">
<path d="M5.14502 8.93506C5.14502 8.66984 5.25038 8.41549 5.43791 8.22795C5.62545 8.04042 5.8798 7.93506 6.14502 7.93506C6.41024 7.93506 6.66459 8.04042 6.85213 8.22795C7.03966 8.41549 7.14502 8.66984 7.14502 8.93506V15.4351C7.14502 15.7003 7.03966 15.9546 6.85213 16.1422C6.66459 16.3297 6.41024 16.4351 6.14502 16.4351C5.8798 16.4351 5.62545 16.3297 5.43791 16.1422C5.25038 15.9546 5.14502 15.7003 5.14502 15.4351V8.93506Z" fill="black"/>
<path d="M6.14502 6.93506C6.6973 6.93506 7.14502 6.48734 7.14502 5.93506C7.14502 5.38277 6.6973 4.93506 6.14502 4.93506C5.59273 4.93506 5.14502 5.38277 5.14502 5.93506C5.14502 6.48734 5.59273 6.93506 6.14502 6.93506Z" fill="black"/>
<path d="M17.375 11.5554V15.4354C17.375 15.7006 17.2697 15.955 17.0821 16.1425C16.8946 16.3301 16.6402 16.4354 16.375 16.4354C16.1098 16.4354 15.8554 16.3301 15.6679 16.1425C15.4804 15.955 15.375 15.7006 15.375 15.4354V11.5554C15.375 11.1271 15.2049 10.7163 14.902 10.4134C14.5991 10.1106 14.1883 9.94041 13.76 9.94041C13.3317 9.94041 12.9209 10.1106 12.618 10.4134C12.3152 10.7163 12.145 11.1271 12.145 11.5554V15.4354C12.145 15.7006 12.0397 15.955 11.8521 16.1425C11.6646 16.3301 11.4102 16.4354 11.145 16.4354C10.8798 16.4354 10.6254 16.3301 10.4379 16.1425C10.2504 15.955 10.145 15.7006 10.145 15.4354V8.93541C10.1491 8.67148 10.2558 8.41952 10.4425 8.23287C10.6291 8.04622 10.8811 7.93954 11.145 7.93541C11.3144 7.93077 11.4819 7.972 11.6297 8.05474C11.7776 8.13747 11.9004 8.25864 11.985 8.40541C12.5348 8.09345 13.157 7.93137 13.7891 7.93541C14.4212 7.93945 15.0412 8.10946 15.587 8.42843C16.1328 8.74739 16.5852 9.20412 16.899 9.7529C17.2128 10.3017 17.377 10.9233 17.375 11.5554Z" fill="black"/>
<path d="M18.1056 0.935059H3.06448C2.29086 0.937216 1.54953 1.24549 1.00249 1.79253C0.455455 2.33957 0.147177 3.0809 0.14502 3.85452V18.8956C0.147177 19.6692 0.455455 20.4105 1.00249 20.9576C1.54953 21.5046 2.29086 21.8129 3.06448 21.8151H18.1056C18.8798 21.8151 19.6224 21.5075 20.1699 20.96C20.7174 20.4125 21.025 19.6699 21.025 18.8956V3.85452C21.025 3.08023 20.7174 2.33766 20.1699 1.79015C19.6224 1.24264 18.8798 0.935059 18.1056 0.935059ZM19.8572 18.8956C19.8539 19.3591 19.6682 19.8027 19.3405 20.1305C19.0127 20.4583 18.5691 20.6439 18.1056 20.6473H3.06448C2.60095 20.6439 2.15735 20.4583 1.82958 20.1305C1.5018 19.8027 1.31617 19.3591 1.3128 18.8956V3.85452C1.31617 3.39099 1.5018 2.94739 1.82958 2.61961C2.15735 2.29184 2.60095 2.10621 3.06448 2.10284H18.1056C18.5691 2.10621 19.0127 2.29184 19.3405 2.61961C19.6682 2.94739 19.8539 3.39099 19.8572 3.85452V18.8956Z" fill="black"/>
</svg>
